<svg width="3000" height="3000" viewBox="0 0 3000 3000" fill="none" xmlns="http://www.w3.org/2000/svg">
<rect x="0.5" y="0.5" width="2999" height="2999" rx="179.5" fill="black" style="fill:black;fill-opacity:1;"/>
<rect x="0.5" y="0.5" width="2999" height="2999" rx="179.5" stroke="black" style="stroke:black;stroke-opacity:1;"/>
<path d="M761.4 2340.3H764.466C902.459 2340.3 1012.85 2334.13 1089.52 2318.71C1279.64 2278.61 1347.1 2173.75 1396.17 1982.53C1426.83 1846.82 1436.03 1819.07 1466.7 1819.07C1503.49 1819.07 1512.69 1828.32 1512.69 1951.69C1512.69 2099.73 1515.76 2229.26 1506.56 2346.46C1500.43 2438.99 1485.09 2448.24 1451.36 2448.24C1371.63 2448.24 1255.11 2435.91 844.195 2435.91C531.412 2435.91 495.134 2445.07 439.937 2445.07C355.75 2439.72 325.215 2364.88 375.021 2278.61L1101.78 776.609C1157.01 651.626 1200.39 591.557 1031.25 591.557C957.656 591.557 880.993 591.557 813.53 610.062C693.937 640.904 617.274 714.925 568.21 819.787C522.213 921.566 519.146 1060.35 442.484 1060.35C411.819 1060.35 402.619 1023.34 402.619 973.997C402.619 940.071 405.686 899.976 411.819 856.798C424.085 733.43 433.284 576.136 448.617 477.442C460.883 403.421 479.282 388 500.747 388C537.545 388 546.745 415.758 562.077 443.516C577.41 474.357 605.008 502.115 687.804 502.115C819.663 502.115 954.589 505.199 1092.58 505.199C1221.38 505.199 1254.57 502.115 1383.37 502.115C1534.37 502.115 1455.39 655.783 1445.23 677.914C1206.04 1174.47 972.988 1674.11 736.868 2173.75C695.068 2268.34 625 2340.3 761.4 2340.3Z" fill="white" style="fill:white;fill-opacity:1;"/>
<path d="M2149.7 2476H2146.63C1812.38 2476 1585.46 2139.82 1585.46 1738.88C1585.46 1337.93 1812.38 1001.75 2149.7 1001.75C2490.08 1001.75 2717 1337.93 2717 1738.88C2717 2139.82 2490.08 2476 2149.7 2476ZM2155.83 2389.64H2158.9C2352.09 2389.64 2393.61 2071.1 2393.61 1768.85C2393.61 1423.42 2342.89 1088.11 2143.56 1088.11C1947.31 1088.11 1928.58 1436.63 1928.58 1738.88C1928.58 2084.31 1959.57 2389.64 2155.83 2389.64Z" fill="white" style="fill:white;fill-opacity:1;"/>
</svg>

